<?xml version="1.0" encoding="UTF-8"?>
<svg xmlns="http://www.w3.org/2000/svg" xmlns:xlink="http://www.w3.org/1999/xlink" viewBox="0 0 50 50" width="50px" height="50px">
<g id="surface177827626">
<path style=" stroke:none;fill-rule:nonzero;fill:rgb(100%,100%,100%);fill-opacity:1;" d="M 11 4 C 6.039062 4 2 6 2 11.5 C 2 17 6.039062 19 11 19 L 25 19 L 25 10 L 14 10 L 14 13 L 18 13 L 18 15 L 12.117188 15 C 10.46875 15 9 15 9 11.5 C 9 8.121094 10.351562 8 12 8 L 25 8 L 25 4 Z M 27 4 L 27 8 L 34 8 L 34 19 L 41 19 L 41 8 L 48 8 L 48 4 Z M 2 21 L 2 26 L 4 26 L 4 40 L 2 40 L 2 45 L 16 45 L 16 40 L 14 40 L 14 36 L 29 36 L 30.699219 40.402344 C 31.054688 41.113281 31.480469 41.796875 32.039062 42.355469 C 34.65625 44.96875 38.667969 45 44 45 L 48 45 L 48 40 L 43 40 C 41 40 40 38 39 36 L 41 36 C 45.191406 36 48 33 48 28.5 C 48 24 45.191406 21 41 21 Z M 14 26 L 37 26 C 38 26 39 27 39 28.5 C 39 30 38 31 37 31 L 14 31 Z M 14 26 "/>
</g>
</svg>
